<svg xmlns="http://www.w3.org/2000/svg" viewBox="0 0 512 512" role="img" aria-labelledby="title desc">
  <title id="title">Orbit Webform logo</title>
  <desc id="desc">A circular orbit mark surrounding a stylized webform with a check mark.</desc>
  <defs>
    <linearGradient id="orbit-gradient" x1="78" y1="96" x2="434" y2="416" gradientUnits="userSpaceOnUse">
      <stop offset="0" stop-color="#21A8A3"/>
      <stop offset="0.52" stop-color="#3164D4"/>
      <stop offset="1" stop-color="#6D4CC2"/>
    </linearGradient>
    <linearGradient id="panel-gradient" x1="158" y1="126" x2="354" y2="386" gradientUnits="userSpaceOnUse">
      <stop offset="0" stop-color="#FFFFFF"/>
      <stop offset="1" stop-color="#EEF4FF"/>
    </linearGradient>
    <filter id="soft-shadow" x="-20%" y="-20%" width="140%" height="140%">
      <feDropShadow dx="0" dy="16" stdDeviation="18" flood-color="#14213D" flood-opacity="0.18"/>
    </filter>
  </defs>

  <rect width="512" height="512" rx="112" fill="#F7FAFC"/>

  <g fill="none" stroke="url(#orbit-gradient)" stroke-linecap="round">
    <ellipse cx="256" cy="256" rx="190" ry="92" stroke-width="22" transform="rotate(-24 256 256)"/>
    <ellipse cx="256" cy="256" rx="190" ry="92" stroke-width="14" opacity="0.28" transform="rotate(36 256 256)"/>
  </g>

  <circle cx="406" cy="181" r="28" fill="#21A8A3"/>
  <circle cx="104" cy="323" r="18" fill="#6D4CC2"/>

  <g filter="url(#soft-shadow)">
    <rect x="156" y="122" width="216" height="268" rx="28" fill="url(#panel-gradient)" stroke="#D9E3F2" stroke-width="4"/>
    <rect x="188" y="166" width="88" height="14" rx="7" fill="#3164D4"/>
    <rect x="188" y="206" width="136" height="16" rx="8" fill="#C8D6EA"/>
    <rect x="188" y="250" width="136" height="16" rx="8" fill="#C8D6EA"/>
    <rect x="188" y="294" width="72" height="16" rx="8" fill="#C8D6EA"/>
    <rect x="188" y="330" width="86" height="28" rx="14" fill="#21A8A3"/>
  </g>

  <path d="M302 318l28 28 64-76" fill="none" stroke="#14213D" stroke-width="24" stroke-linecap="round" stroke-linejoin="round"/>
</svg>
